<svg width="18" height="18" viewBox="0 0 18 18" fill="none" xmlns="http://www.w3.org/2000/svg">
<path d="M7.59375 6.65625C7.59375 5.8796 8.22335 5.25 9 5.25C9.77665 5.25 10.4062 5.8796 10.4062 6.65625C10.4062 7.17183 10.1288 7.62261 9.71502 7.86741C9.35853 8.07832 9 8.39829 9 8.8125V9.75" stroke="#6DC5D3" stroke-linecap="round"/>
<circle cx="9" cy="12" r="0.75" fill="#6DC5D3"/>
<path d="M1.5 7.5C1.5 4.67157 1.5 3.25736 2.37868 2.37868C3.25736 1.5 4.67157 1.5 7.5 1.5H10.5C13.3284 1.5 14.7426 1.5 15.6213 2.37868C16.5 3.25736 16.5 4.67157 16.5 7.5V10.5C16.5 13.3284 16.5 14.7426 15.6213 15.6213C14.7426 16.5 13.3284 16.5 10.5 16.5H7.5C4.67157 16.5 3.25736 16.5 2.37868 15.6213C1.5 14.7426 1.5 13.3284 1.5 10.5V7.5Z" stroke="#6DC5D3"/>
</svg>
