<svg width="19" height="18" viewBox="0 0 19 18" fill="none" xmlns="http://www.w3.org/2000/svg">
<path d="M2.5835 7.5C2.5835 4.67157 2.5835 3.25736 3.46218 2.37868C4.34086 1.5 5.75507 1.5 8.5835 1.5H10.0835C12.9119 1.5 14.3261 1.5 15.2048 2.37868C16.0835 3.25736 16.0835 4.67157 16.0835 7.5V10.5C16.0835 13.3284 16.0835 14.7426 15.2048 15.6213C14.3261 16.5 12.9119 16.5 10.0835 16.5H8.5835C5.75507 16.5 4.34086 16.5 3.46218 15.6213C2.5835 14.7426 2.5835 13.3284 2.5835 10.5V7.5Z" stroke="#6DC5D3"/>
<path d="M6.3335 9H12.3335" stroke="#6DC5D3" stroke-linecap="round"/>
<path d="M6.3335 6H12.3335" stroke="#6DC5D3" stroke-linecap="round"/>
<path d="M6.3335 12H10.0835" stroke="#6DC5D3" stroke-linecap="round"/>
</svg>
