<svg width="16" height="16" viewBox="0 0 16 16" fill="none" xmlns="http://www.w3.org/2000/svg">
<path d="M13.9834 8.12362L13.4908 8.03842V8.03842L13.9834 8.12362ZM13.5131 10.8435L13.0204 10.7583V10.7583L13.5131 10.8435ZM4.62518 13.6515L4.12704 13.6946L4.62518 13.6515ZM4.08374 7.38976L4.58188 7.34669L4.08374 7.38976ZM9.32997 3.48111L9.82339 3.56195V3.56195L9.32997 3.48111ZM8.88818 6.17748L9.38161 6.25833V6.25833L8.88818 6.17748ZM4.46543 6.45182L4.13903 6.07305L4.13903 6.07305L4.46543 6.45182ZM5.42459 5.62529L5.75098 6.00406L5.75098 6.00406L5.42459 5.62529ZM7.01204 3.18932L6.52805 3.06378V3.06378L7.01204 3.18932ZM7.32917 1.96676L7.81316 2.0923V2.0923L7.32917 1.96676ZM8.44506 1.3764L8.29214 1.85244L8.29214 1.85244L8.44506 1.3764ZM8.54171 1.40745L8.69464 0.931407L8.69464 0.931407L8.54171 1.40745ZM6.57463 4.30857L7.01566 4.54416L6.57463 4.30857ZM9.26979 2.16518L8.78581 2.29073V2.29073L9.26979 2.16518ZM7.7828 1.42176L7.56575 0.971327V0.971327L7.7828 1.42176ZM2.64773 14.314L2.14959 14.357L2.64773 14.314ZM2 6.82296L2.49814 6.77989C2.47507 6.51313 2.24595 6.31188 1.97844 6.32343C1.71093 6.33497 1.5 6.5552 1.5 6.82296H2ZM13.4908 8.03842L13.0204 10.7583L14.0058 10.9287L14.4761 8.20883L13.4908 8.03842ZM8.82998 14.1668H5.7309V15.1668H8.82998V14.1668ZM5.12332 13.6085L4.58188 7.34669L3.5856 7.43284L4.12704 13.6946L5.12332 13.6085ZM13.0204 10.7583C12.6825 12.712 10.9209 14.1668 8.82998 14.1668V15.1668C11.3808 15.1668 13.5805 13.3875 14.0058 10.9287L13.0204 10.7583ZM8.83655 3.40027L8.39476 6.09664L9.38161 6.25833L9.82339 3.56195L8.83655 3.40027ZM4.79182 6.83059L5.75098 6.00406L5.09819 5.24652L4.13903 6.07305L4.79182 6.83059ZM7.49602 3.31487L7.81316 2.0923L6.84519 1.84121L6.52805 3.06378L7.49602 3.31487ZM8.29214 1.85244L8.38878 1.88349L8.69464 0.931407L8.59799 0.900359L8.29214 1.85244ZM7.01566 4.54416C7.22363 4.15481 7.38511 3.74243 7.49602 3.31487L6.52805 3.06378C6.43715 3.41421 6.30466 3.75278 6.13361 4.07299L7.01566 4.54416ZM8.38878 1.88349C8.59306 1.94911 8.73812 2.10689 8.78581 2.29073L9.75377 2.03963C9.6168 1.51162 9.21264 1.09782 8.69464 0.931407L8.38878 1.88349ZM7.81316 2.0923C7.8365 2.0023 7.9015 1.91958 7.99985 1.87219L7.56575 0.971327C7.21109 1.14223 6.94468 1.45767 6.84519 1.84121L7.81316 2.0923ZM7.99985 1.87219C8.08968 1.8289 8.19543 1.82137 8.29214 1.85244L8.59799 0.90036C8.25817 0.791193 7.88748 0.816295 7.56575 0.971327L7.99985 1.87219ZM9.43579 7.32296H12.8899V6.32296H9.43579V7.32296ZM3.14587 14.2709L2.49814 6.77989L1.50186 6.86604L2.14959 14.357L3.14587 14.2709ZM2.5 14.342V6.82296H1.5V14.342H2.5ZM2.14959 14.357C2.1408 14.2554 2.22097 14.1668 2.32447 14.1668V15.1668C2.80846 15.1668 3.18748 14.7521 3.14587 14.2709L2.14959 14.357ZM9.82339 3.56195C9.90641 3.0552 9.8827 2.53668 9.75377 2.03963L8.78581 2.29073C8.87978 2.65298 8.89706 3.03092 8.83655 3.40027L9.82339 3.56195ZM5.7309 14.1668C5.41496 14.1668 5.15068 13.9248 5.12332 13.6085L4.12704 13.6946C4.19901 14.527 4.89513 15.1668 5.7309 15.1668V14.1668ZM5.75098 6.00406C6.20422 5.6135 6.69277 5.14861 7.01566 4.54416L6.13361 4.07299C5.90269 4.50528 5.535 4.87011 5.09819 5.24652L5.75098 6.00406ZM14.4761 8.20883C14.6463 7.2245 13.8894 6.32296 12.8899 6.32296V7.32296C13.2676 7.32296 13.5555 7.6641 13.4908 8.03842L14.4761 8.20883ZM2.32447 14.1668C2.42195 14.1668 2.5 14.2458 2.5 14.342H1.5C1.5 14.797 1.86859 15.1668 2.32447 15.1668V14.1668ZM8.39476 6.09664C8.28959 6.73854 8.78438 7.32296 9.43579 7.32296V6.32296C9.40254 6.32296 9.37595 6.29283 9.38161 6.25833L8.39476 6.09664ZM4.58188 7.34669C4.56493 7.15071 4.64317 6.95869 4.79182 6.83059L4.13903 6.07305C3.74681 6.41104 3.541 6.91702 3.5856 7.43284L4.58188 7.34669Z" fill="#143237"/>
</svg>
