<svg width="19" height="18" viewBox="0 0 19 18" fill="none" xmlns="http://www.w3.org/2000/svg">
<path d="M7.53186 4.05628C8.48185 2.35209 8.95684 1.5 9.66699 1.5C10.3771 1.5 10.8521 2.35209 11.8021 4.05628L12.0479 4.49717C12.3178 4.98145 12.4528 5.22359 12.6633 5.38335C12.8737 5.54312 13.1359 5.60242 13.6601 5.72104L14.1373 5.82902C15.9821 6.24642 16.9045 6.45511 17.1239 7.1608C17.3434 7.86648 16.7146 8.6018 15.4569 10.0724L15.1316 10.4529C14.7742 10.8708 14.5955 11.0798 14.5151 11.3383C14.4347 11.5968 14.4617 11.8756 14.5158 12.4332L14.5649 12.9408C14.7551 14.9029 14.8501 15.884 14.2756 16.3202C13.7011 16.7563 12.8375 16.3587 11.1102 15.5634L10.6634 15.3576C10.1725 15.1316 9.92713 15.0186 9.66699 15.0186C9.40685 15.0186 9.16144 15.1316 8.67061 15.3576L8.22375 15.5634C6.4965 16.3587 5.63287 16.7563 5.05835 16.3202C4.48383 15.884 4.5789 14.9029 4.76904 12.9408L4.81823 12.4332C4.87226 11.8756 4.89928 11.5968 4.81889 11.3383C4.7385 11.0798 4.55981 10.8708 4.20243 10.4529L3.87707 10.0724C2.61943 8.6018 1.99061 7.86648 2.21006 7.1608C2.42951 6.45511 3.35188 6.24642 5.19664 5.82902L5.67391 5.72104C6.19813 5.60243 6.46024 5.54312 6.6707 5.38335C6.88116 5.22359 7.01614 4.98145 7.28609 4.49717L7.53186 4.05628Z" stroke="#6DC5D3"/>
</svg>
